if (_typeface_js && _typeface_js.loadFace) _typeface_js.loadFace({"glyphs":{"0":{"ha":1389,"x_min":0,"x_max":0,"o":"m 417 833 l 694 833 l 694 278 l 417 278 z m 0 0 l 1250 0 l 1250 1250 l 0 1250 z "},"1":{"ha":833,"x_min":0,"x_max":0,"o":"m 0 694 l 139 694 l 139 0 l 694 0 l 694 1250 l 0 1250 z "},"2":{"ha":1389,"x_min":0,"x_max":0,"o":"m 556 694 l 556 556 l 139 556 l 139 417 l 0 417 l 0 0 l 1250 0 l 1250 278 l 556 278 l 556 417 l 1250 417 l 1250 1250 l 0 1250 l 0 694 z "},"3":{"ha":1389,"x_min":0,"x_max":0,"o":"m 0 694 l 694 694 l 694 556 l 278 556 l 278 417 l 694 417 l 694 278 l 0 278 l 0 0 l 1250 0 l 1250 417 l 1111 417 l 1111 556 l 1250 556 l 1250 1250 l 0 1250 z "},"4":{"ha":1528,"x_min":0,"x_max":0,"o":"m 556 694 l 694 694 l 694 417 l 556 417 z m 278 1111 l 139 1111 l 139 972 l 0 972 l 0 139 l 694 139 l 694 0 l 1250 0 l 1250 139 l 1389 139 l 1389 417 l 1250 417 l 1250 1250 l 278 1250 z "},"5":{"ha":1389,"x_min":0,"x_max":0,"o":"m 0 1250 l 0 417 l 694 417 l 694 278 l 0 278 l 0 0 l 1111 0 l 1111 139 l 1250 139 l 1250 556 l 694 556 l 694 694 l 1250 694 l 1250 1250 z "},"6":{"ha":1389,"x_min":0,"x_max":0,"o":"m 556 417 l 833 417 l 833 278 l 556 278 z m 0 0 l 1111 0 l 1111 139 l 1250 139 l 1250 556 l 694 556 l 694 694 l 1250 694 l 1250 1250 l 0 1250 z "},"7":{"ha":1389,"x_min":0,"x_max":0,"o":"m 0 556 l 417 556 l 417 694 l 694 694 l 694 556 l 556 556 l 556 0 l 1111 0 l 1111 278 l 1250 278 l 1250 1250 l 0 1250 z "},"8":{"ha":1389,"x_min":0,"x_max":0,"o":"m 1250 1250 l 0 1250 l 0 553 l 139 556 l 139 417 l 0 417 l 0 0 l 1250 0 l 1250 417 l 1111 417 l 1111 556 l 1250 556 z m 556 417 l 833 417 l 833 278 l 556 278 z m 556 694 l 833 694 l 833 556 l 556 556 z "},"9":{"ha":1389,"x_min":0,"x_max":0,"o":"m 694 556 l 417 556 l 417 694 l 694 694 z m 1250 1250 l 0 1250 l 0 417 l 694 417 l 694 278 l 0 278 l 0 0 l 1250 0 z "}," ":{"ha":417,"x_min":0,"x_max":0,"o":""},"!":{"ha":556,"x_min":0,"x_max":0,"o":"m 0 278 l 0 0 l 278 0 l 278 278 z m 0 1250 l 0 417 l 278 417 l 278 556 l 417 556 l 417 1250 z "},"\"":{"ha":833,"x_min":0,"x_max":0,"o":"m 0 833 l 278 833 l 278 1250 l 0 1250 z m 417 833 l 694 833 l 694 1250 l 417 1250 z "},"#":{"ha":1389,"x_min":0,"x_max":0,"o":"m 1111 972 l 1111 1111 l 694 1111 l 694 972 l 556 972 l 556 1111 l 139 1111 l 139 972 l 0 972 l 0 556 l 139 556 l 139 417 l 278 417 l 278 278 l 417 278 l 417 139 l 556 139 l 556 0 l 694 0 l 694 139 l 833 139 l 833 278 l 972 278 l 972 417 l 1111 417 l 1111 556 l 1250 556 l 1250 972 z "},"$":{"ha":1389,"x_min":0,"x_max":0,"o":"m 1111 972 l 1111 1111 l 694 1111 l 694 972 l 556 972 l 556 1111 l 139 1111 l 139 972 l 0 972 l 0 556 l 139 556 l 139 417 l 278 417 l 278 278 l 417 278 l 417 139 l 556 139 l 556 0 l 694 0 l 694 139 l 833 139 l 833 278 l 972 278 l 972 417 l 1111 417 l 1111 556 l 1250 556 l 1250 972 z "},"%":{"ha":1389,"x_min":0,"x_max":0,"o":"m 1111 972 l 1111 1111 l 694 1111 l 694 972 l 556 972 l 556 1111 l 139 1111 l 139 972 l 0 972 l 0 556 l 139 556 l 139 417 l 278 417 l 278 278 l 417 278 l 417 139 l 556 139 l 556 0 l 694 0 l 694 139 l 833 139 l 833 278 l 972 278 l 972 417 l 1111 417 l 1111 556 l 1250 556 l 1250 972 z "},"&":{"ha":1389,"x_min":0,"x_max":0,"o":"m 1111 972 l 1111 1111 l 694 1111 l 694 972 l 556 972 l 556 1111 l 139 1111 l 139 972 l 0 972 l 0 556 l 139 556 l 139 417 l 278 417 l 278 278 l 417 278 l 417 139 l 556 139 l 556 0 l 694 0 l 694 139 l 833 139 l 833 278 l 972 278 l 972 417 l 1111 417 l 1111 556 l 1250 556 l 1250 972 z "},"'":{"ha":417,"x_min":0,"x_max":0,"o":"m 0 833 l 278 833 l 278 1250 l 0 1250 z "},"(":{"ha":1389,"x_min":0,"x_max":0,"o":"m 1111 972 l 1111 1111 l 694 1111 l 694 972 l 556 972 l 556 1111 l 139 1111 l 139 972 l 0 972 l 0 556 l 139 556 l 139 417 l 278 417 l 278 278 l 417 278 l 417 139 l 556 139 l 556 0 l 694 0 l 694 139 l 833 139 l 833 278 l 972 278 l 972 417 l 1111 417 l 1111 556 l 1250 556 l 1250 972 z "},")":{"ha":1389,"x_min":0,"x_max":0,"o":"m 1111 972 l 1111 1111 l 694 1111 l 694 972 l 556 972 l 556 1111 l 139 1111 l 139 972 l 0 972 l 0 556 l 139 556 l 139 417 l 278 417 l 278 278 l 417 278 l 417 139 l 556 139 l 556 0 l 694 0 l 694 139 l 833 139 l 833 278 l 972 278 l 972 417 l 1111 417 l 1111 556 l 1250 556 l 1250 972 z "},"*":{"ha":1389,"x_min":0,"x_max":0,"o":"m 1111 972 l 1111 1111 l 694 1111 l 694 972 l 556 972 l 556 1111 l 139 1111 l 139 972 l 0 972 l 0 556 l 139 556 l 139 417 l 278 417 l 278 278 l 417 278 l 417 139 l 556 139 l 556 0 l 694 0 l 694 139 l 833 139 l 833 278 l 972 278 l 972 417 l 1111 417 l 1111 556 l 1250 556 l 1250 972 z "},"+":{"ha":1389,"x_min":0,"x_max":0,"o":"m 1111 972 l 1111 1111 l 694 1111 l 694 972 l 556 972 l 556 1111 l 139 1111 l 139 972 l 0 972 l 0 556 l 139 556 l 139 417 l 278 417 l 278 278 l 417 278 l 417 139 l 556 139 l 556 0 l 694 0 l 694 139 l 833 139 l 833 278 l 972 278 l 972 417 l 1111 417 l 1111 556 l 1250 556 l 1250 972 z "},",":{"ha":417,"x_min":0,"x_max":0,"o":"m 0 -139 l 278 -139 l 278 278 l 0 278 z "},"-":{"ha":694,"x_min":0,"x_max":0,"o":"m 0 417 l 556 417 l 556 694 l 0 694 z "},".":{"ha":417,"x_min":0,"x_max":0,"o":"m 0 0 l 278 0 l 278 278 l 0 278 z "},"/":{"ha":1389,"x_min":0,"x_max":0,"o":"m 1111 972 l 1111 1111 l 694 1111 l 694 972 l 556 972 l 556 1111 l 139 1111 l 139 972 l 0 972 l 0 556 l 139 556 l 139 417 l 278 417 l 278 278 l 417 278 l 417 139 l 556 139 l 556 0 l 694 0 l 694 139 l 833 139 l 833 278 l 972 278 l 972 417 l 1111 417 l 1111 556 l 1250 556 l 1250 972 z "},":":{"ha":417,"x_min":0,"x_max":0,"o":"m 0 556 l 278 556 l 278 833 l 0 833 z m 0 0 l 278 0 l 278 278 l 0 278 z "},";":{"ha":417,"x_min":0,"x_max":0,"o":"m 0 556 l 278 556 l 278 833 l 0 833 z m 0 -139 l 278 -139 l 278 278 l 0 278 z "},"<":{"ha":1389,"x_min":0,"x_max":0,"o":"m 1111 972 l 1111 1111 l 694 1111 l 694 972 l 556 972 l 556 1111 l 139 1111 l 139 972 l 0 972 l 0 556 l 139 556 l 139 417 l 278 417 l 278 278 l 417 278 l 417 139 l 556 139 l 556 0 l 694 0 l 694 139 l 833 139 l 833 278 l 972 278 l 972 417 l 1111 417 l 1111 556 l 1250 556 l 1250 972 z "},"=":{"ha":1389,"x_min":0,"x_max":0,"o":"m 1111 972 l 1111 1111 l 694 1111 l 694 972 l 556 972 l 556 1111 l 139 1111 l 139 972 l 0 972 l 0 556 l 139 556 l 139 417 l 278 417 l 278 278 l 417 278 l 417 139 l 556 139 l 556 0 l 694 0 l 694 139 l 833 139 l 833 278 l 972 278 l 972 417 l 1111 417 l 1111 556 l 1250 556 l 1250 972 z "},">":{"ha":1389,"x_min":0,"x_max":0,"o":"m 1111 972 l 1111 1111 l 694 1111 l 694 972 l 556 972 l 556 1111 l 139 1111 l 139 972 l 0 972 l 0 556 l 139 556 l 139 417 l 278 417 l 278 278 l 417 278 l 417 139 l 556 139 l 556 0 l 694 0 l 694 139 l 833 139 l 833 278 l 972 278 l 972 417 l 1111 417 l 1111 556 l 1250 556 l 1250 972 z "},"?":{"ha":1389,"x_min":0,"x_max":0,"o":"m 417 278 l 417 0 l 694 0 l 694 278 z m 0 694 l 417 694 l 417 833 l 694 833 l 694 694 l 556 694 l 556 556 l 417 556 l 417 417 l 1250 417 l 1250 1250 l 0 1250 z "},"@":{"ha":1389,"x_min":0,"x_max":0,"o":"m 1111 972 l 1111 1111 l 694 1111 l 694 972 l 556 972 l 556 1111 l 139 1111 l 139 972 l 0 972 l 0 556 l 139 556 l 139 417 l 278 417 l 278 278 l 417 278 l 417 139 l 556 139 l 556 0 l 694 0 l 694 139 l 833 139 l 833 278 l 972 278 l 972 417 l 1111 417 l 1111 556 l 1250 556 l 1250 972 z "},"A":{"ha":1389,"x_min":0,"x_max":0,"o":"m 556 556 l 556 694 l 417 694 l 417 972 l 556 972 l 556 833 l 694 833 l 694 972 l 833 972 l 833 694 l 694 694 l 694 556 z m 0 0 l 417 0 l 417 417 l 694 417 l 694 278 l 833 278 l 833 0 l 1250 0 l 1250 1250 l 0 1250 z "},"B":{"ha":1389,"x_min":0,"x_max":0,"o":"m 417 417 l 694 417 l 694 278 l 417 278 z m 556 556 l 556 694 l 417 694 l 417 972 l 556 972 l 556 833 l 694 833 l 694 972 l 833 972 l 833 694 l 694 694 l 694 556 z m 0 0 l 1111 0 l 1111 139 l 1250 139 l 1250 417 l 1111 417 l 1111 556 l 1250 556 l 1250 1250 l 0 1250 z "},"C":{"ha":1389,"x_min":0,"x_max":0,"o":"m 0 0 l 1250 0 l 1250 417 l 556 417 l 556 556 l 694 556 l 694 694 l 1250 694 l 1250 1250 l 0 1250 z "},"D":{"ha":1389,"x_min":0,"x_max":0,"o":"m 556 417 l 556 556 l 417 556 l 417 833 l 556 833 l 556 694 l 694 694 l 694 833 l 833 833 l 833 556 l 694 556 l 694 417 z m 0 0 l 1111 0 l 1111 139 l 1250 139 l 1250 1111 l 1111 1111 l 1111 1250 l 0 1250 z "},"E":{"ha":1250,"x_min":0,"x_max":0,"o":"m 0 0 l 1111 0 l 1111 417 l 556 417 l 556 556 l 1111 556 l 1111 694 l 556 694 l 556 833 l 1111 833 l 1111 1250 l 0 1250 z "},"F":{"ha":1250,"x_min":0,"x_max":0,"o":"m 0 0 l 417 0 l 417 278 l 972 278 l 972 556 l 556 556 l 556 694 l 1111 694 l 1111 1250 l 0 1250 z "},"G":{"ha":1389,"x_min":0,"x_max":0,"o":"m 0 0 l 1250 0 l 1250 556 l 694 556 l 694 417 l 833 417 l 833 278 l 556 278 l 556 556 l 694 556 l 694 694 l 1250 694 l 1250 1250 l 0 1250 z "},"H":{"ha":1528,"x_min":0,"x_max":0,"o":"m 0 0 l 556 0 l 556 278 l 694 278 l 694 417 l 833 417 l 833 0 l 1389 0 l 1389 1250 l 833 1250 l 833 694 l 556 694 l 556 1250 l 0 1250 z "},"I":{"ha":694,"x_min":0,"x_max":0,"o":"m 0 0 l 556 0 l 556 1250 l 0 1250 z "},"J":{"ha":1389,"x_min":0,"x_max":0,"o":"m 694 1250 l 694 278 l 417 278 l 417 556 l 0 556 l 0 0 l 1250 0 l 1250 1250 z "},"K":{"ha":1389,"x_min":0,"x_max":0,"o":"m 0 1250 l 0 0 l 417 0 l 417 278 l 556 278 l 556 139 l 833 139 l 833 0 l 1250 0 l 1250 278 l 972 278 l 972 417 l 833 417 l 833 556 l 1250 556 l 1250 1250 l 694 1250 l 694 972 l 556 972 l 556 694 l 417 694 l 417 1250 z "},"L":{"ha":1111,"x_min":0,"x_max":0,"o":"m 0 0 l 972 0 l 972 556 l 556 556 l 556 1250 l 0 1250 z "},"M":{"ha":1667,"x_min":0,"x_max":0,"o":"m 0 0 l 278 0 l 278 694 l 417 694 l 417 417 l 556 417 l 556 139 l 694 139 l 694 417 l 833 417 l 833 556 l 972 556 l 972 0 l 1528 0 l 1528 1250 l 833 1250 l 833 972 l 694 972 l 694 694 l 556 694 l 556 1111 l 417 1111 l 417 1250 l 0 1250 z "},"N":{"ha":1528,"x_min":0,"x_max":0,"o":"m 0 1250 l 0 0 l 278 0 l 278 556 l 417 556 l 417 417 l 556 417 l 556 278 l 694 278 l 694 0 l 1389 0 l 1389 1250 l 833 1250 l 833 694 l 694 694 l 694 1111 l 556 1111 l 556 1250 z "},"O":{"ha":1389,"x_min":0,"x_max":0,"o":"m 556 417 l 556 556 l 417 556 l 417 833 l 556 833 l 556 694 l 694 694 l 694 833 l 833 833 l 833 556 l 694 556 l 694 417 z m 0 0 l 1250 0 l 1250 1250 l 0 1250 z "},"P":{"ha":1528,"x_min":0,"x_max":0,"o":"m 694 556 l 694 694 l 556 694 l 556 972 l 694 972 l 694 833 l 833 833 l 833 972 l 972 972 l 972 694 l 833 694 l 833 556 z m 417 139 l 556 139 l 556 278 l 1250 278 l 1250 417 l 1389 417 l 1389 1250 l 0 1250 l 0 0 l 417 0 z "},"Q":{"ha":1389,"x_min":0,"x_max":0,"o":"m 556 417 l 556 556 l 417 556 l 417 833 l 556 833 l 556 694 l 694 694 l 694 833 l 833 833 l 833 556 l 694 556 l 694 417 z m 0 0 l 1250 0 l 1250 278 l 1111 278 l 1111 417 l 1250 417 l 1250 1250 l 0 1250 z "},"R":{"ha":1528,"x_min":0,"x_max":0,"o":"m 694 556 l 694 694 l 556 694 l 556 972 l 694 972 l 694 833 l 833 833 l 833 972 l 972 972 l 972 694 l 833 694 l 833 556 z m 417 139 l 833 139 l 833 0 l 1389 0 l 1389 278 l 1111 278 l 1111 417 l 1389 417 l 1389 1250 l 0 1250 l 0 0 l 417 0 z "},"S":{"ha":1389,"x_min":0,"x_max":0,"o":"m 0 417 l 694 417 l 694 278 l 0 278 l 0 0 l 1250 0 l 1250 556 l 556 556 l 556 694 l 1250 694 l 1250 1250 l 0 1250 z "},"T":{"ha":1528,"x_min":0,"x_max":0,"o":"m 0 694 l 417 694 l 417 0 l 972 0 l 972 694 l 1389 694 l 1389 1250 l 0 1250 z "},"U":{"ha":1528,"x_min":0,"x_max":0,"o":"m 0 0 l 1389 0 l 1389 1250 l 833 1250 l 833 417 l 694 417 l 694 278 l 556 278 l 556 1250 l 0 1250 z "},"V":{"ha":1528,"x_min":0,"x_max":0,"o":"m 0 278 l 139 278 l 139 139 l 278 139 l 278 0 l 1111 0 l 1111 139 l 1250 139 l 1250 278 l 1389 278 l 1389 1250 l 833 1250 l 833 694 l 694 694 l 694 417 l 556 417 l 556 1250 l 0 1250 z "},"W":{"ha":1667,"x_min":0,"x_max":0,"o":"m 417 139 l 556 139 l 556 556 l 694 556 l 694 278 l 833 278 l 833 0 l 1528 0 l 1528 1250 l 972 1250 l 972 694 l 833 694 l 833 833 l 694 833 l 694 1111 l 556 1111 l 556 833 l 417 833 l 417 556 l 278 556 l 278 1250 l 0 1250 l 0 0 l 417 0 z "},"X":{"ha":1528,"x_min":0,"x_max":0,"o":"m 0 694 l 139 694 l 139 556 l 0 556 l 0 0 l 556 0 l 556 278 l 694 278 l 694 417 l 833 417 l 833 0 l 1389 0 l 1389 417 l 1250 417 l 1250 556 l 1389 556 l 1389 1250 l 833 1250 l 833 972 l 694 972 l 694 694 l 556 694 l 556 1250 l 0 1250 z "},"Y":{"ha":1528,"x_min":0,"x_max":0,"o":"m 0 556 l 139 556 l 139 417 l 417 417 l 417 0 l 972 0 l 972 417 l 1250 417 l 1250 556 l 1389 556 l 1389 1250 l 833 1250 l 833 972 l 694 972 l 694 694 l 556 694 l 556 1250 l 0 1250 z "},"Z":{"ha":1389,"x_min":0,"x_max":0,"o":"m 0 1250 l 0 694 l 556 694 l 556 556 l 139 556 l 139 417 l 0 417 l 0 0 l 1250 0 l 1250 278 l 694 278 l 694 417 l 972 417 l 972 556 l 1250 556 l 1250 1250 z "},"[":{"ha":1389,"x_min":0,"x_max":0,"o":"m 1111 972 l 1111 1111 l 694 1111 l 694 972 l 556 972 l 556 1111 l 139 1111 l 139 972 l 0 972 l 0 556 l 139 556 l 139 417 l 278 417 l 278 278 l 417 278 l 417 139 l 556 139 l 556 0 l 694 0 l 694 139 l 833 139 l 833 278 l 972 278 l 972 417 l 1111 417 l 1111 556 l 1250 556 l 1250 972 z "},"\\":{"ha":1389,"x_min":0,"x_max":0,"o":"m 1111 972 l 1111 1111 l 694 1111 l 694 972 l 556 972 l 556 1111 l 139 1111 l 139 972 l 0 972 l 0 556 l 139 556 l 139 417 l 278 417 l 278 278 l 417 278 l 417 139 l 556 139 l 556 0 l 694 0 l 694 139 l 833 139 l 833 278 l 972 278 l 972 417 l 1111 417 l 1111 556 l 1250 556 l 1250 972 z "},"]":{"ha":1389,"x_min":0,"x_max":0,"o":"m 1111 972 l 1111 1111 l 694 1111 l 694 972 l 556 972 l 556 1111 l 139 1111 l 139 972 l 0 972 l 0 556 l 139 556 l 139 417 l 278 417 l 278 278 l 417 278 l 417 139 l 556 139 l 556 0 l 694 0 l 694 139 l 833 139 l 833 278 l 972 278 l 972 417 l 1111 417 l 1111 556 l 1250 556 l 1250 972 z "},"^":{"ha":1389,"x_min":0,"x_max":0,"o":"m 1111 972 l 1111 1111 l 694 1111 l 694 972 l 556 972 l 556 1111 l 139 1111 l 139 972 l 0 972 l 0 556 l 139 556 l 139 417 l 278 417 l 278 278 l 417 278 l 417 139 l 556 139 l 556 0 l 694 0 l 694 139 l 833 139 l 833 278 l 972 278 l 972 417 l 1111 417 l 1111 556 l 1250 556 l 1250 972 z "},"_":{"ha":1389,"x_min":0,"x_max":0,"o":"m 1111 972 l 1111 1111 l 694 1111 l 694 972 l 556 972 l 556 1111 l 139 1111 l 139 972 l 0 972 l 0 556 l 139 556 l 139 417 l 278 417 l 278 278 l 417 278 l 417 139 l 556 139 l 556 0 l 694 0 l 694 139 l 833 139 l 833 278 l 972 278 l 972 417 l 1111 417 l 1111 556 l 1250 556 l 1250 972 z "},"`":{"ha":1389,"x_min":0,"x_max":0,"o":"m 1250 139 l 1111 139 l 1111 0 l 1250 0 z m 139 1250 l 0 1250 l 0 1111 l 139 1111 z m 1250 1250 l 1111 1250 l 1111 1111 l 1250 1111 z m 1250 972 l 1111 972 l 1111 833 l 1250 833 z m 972 1250 l 833 1250 l 833 1111 l 972 1111 z m 694 1250 l 556 1250 l 556 1111 l 694 1111 z m 417 1250 l 278 1250 l 278 1111 l 417 1111 z m 1250 694 l 1111 694 l 1111 556 l 1250 556 z m 1250 417 l 1111 417 l 1111 278 l 1250 278 z m 1111 1111 l 972 1111 l 972 972 l 1111 972 z m 972 972 l 833 972 l 833 833 l 972 833 z m 1111 833 l 972 833 l 972 694 l 1111 694 z m 972 694 l 833 694 l 833 556 l 972 556 z m 833 1111 l 694 1111 l 694 972 l 833 972 z m 694 972 l 556 972 l 556 833 l 694 833 z m 833 833 l 694 833 l 694 694 l 833 694 z m 694 694 l 556 694 l 556 556 l 694 556 z m 556 1111 l 417 1111 l 417 972 l 556 972 z m 417 972 l 278 972 l 278 833 l 417 833 z m 556 833 l 417 833 l 417 694 l 556 694 z m 417 694 l 278 694 l 278 556 l 417 556 z m 278 1111 l 139 1111 l 139 972 l 278 972 z m 139 972 l 0 972 l 0 833 l 139 833 z m 278 833 l 139 833 l 139 694 l 278 694 z m 139 694 l 0 694 l 0 556 l 139 556 z m 1111 556 l 972 556 l 972 417 l 1111 417 z m 972 417 l 833 417 l 833 278 l 972 278 z m 1111 278 l 972 278 l 972 139 l 1111 139 z m 972 139 l 833 139 l 833 0 l 972 0 z m 833 556 l 694 556 l 694 417 l 833 417 z m 694 417 l 556 417 l 556 278 l 694 278 z m 833 278 l 694 278 l 694 139 l 833 139 z m 694 139 l 556 139 l 556 0 l 694 0 z m 556 556 l 417 556 l 417 417 l 556 417 z m 417 417 l 278 417 l 278 278 l 417 278 z m 556 278 l 417 278 l 417 139 l 556 139 z m 417 139 l 278 139 l 278 0 l 417 0 z m 278 556 l 139 556 l 139 417 l 278 417 z m 139 417 l 0 417 l 0 278 l 139 278 z m 278 278 l 139 278 l 139 139 l 278 139 z m 139 139 l 0 139 l 0 0 l 139 0 z "},"a":{"ha":1389,"x_min":0,"x_max":0,"o":"m 556 694 l 833 694 l 833 556 l 556 556 z m 0 0 l 417 0 l 417 417 l 694 417 l 694 278 l 833 278 l 833 0 l 1250 0 l 1250 1250 l 0 1250 z "},"b":{"ha":1389,"x_min":0,"x_max":0,"o":"m 417 417 l 694 417 l 694 278 l 417 278 z m 417 694 l 694 694 l 694 556 l 417 556 z m 0 0 l 1111 0 l 1111 139 l 1250 139 l 1250 417 l 1111 417 l 1111 556 l 1250 556 l 1250 1250 l 0 1250 z "},"c":{"ha":1389,"x_min":0,"x_max":0,"o":"m 0 0 l 1250 0 l 1250 417 l 556 417 l 556 556 l 694 556 l 694 694 l 1250 694 l 1250 1250 l 0 1250 z "},"d":{"ha":1389,"x_min":0,"x_max":0,"o":"m 694 833 l 694 556 l 556 556 l 556 278 l 417 278 l 417 833 z m 0 0 l 1111 0 l 1111 139 l 1250 139 l 1250 1111 l 1111 1111 l 1111 1250 l 0 1250 z "},"e":{"ha":1250,"x_min":0,"x_max":0,"o":"m 0 0 l 1111 0 l 1111 417 l 556 417 l 556 556 l 1111 556 l 1111 694 l 556 694 l 556 833 l 1111 833 l 1111 1250 l 0 1250 z "},"f":{"ha":1250,"x_min":0,"x_max":0,"o":"m 0 0 l 417 0 l 417 278 l 972 278 l 972 556 l 556 556 l 556 694 l 1111 694 l 1111 1250 l 0 1250 z "},"g":{"ha":1389,"x_min":0,"x_max":0,"o":"m 0 0 l 1250 0 l 1250 556 l 694 556 l 694 417 l 833 417 l 833 278 l 556 278 l 556 556 l 694 556 l 694 694 l 1250 694 l 1250 1250 l 0 1250 z "},"h":{"ha":1528,"x_min":0,"x_max":0,"o":"m 0 0 l 556 0 l 556 278 l 694 278 l 694 417 l 833 417 l 833 0 l 1389 0 l 1389 1250 l 833 1250 l 833 694 l 556 694 l 556 1250 l 0 1250 z "},"i":{"ha":694,"x_min":0,"x_max":0,"o":"m 0 0 l 556 0 l 556 1250 l 0 1250 z "},"j":{"ha":1389,"x_min":0,"x_max":0,"o":"m 694 1250 l 694 278 l 417 278 l 417 556 l 0 556 l 0 0 l 1250 0 l 1250 1250 z "},"k":{"ha":1389,"x_min":0,"x_max":0,"o":"m 0 1250 l 0 0 l 417 0 l 417 278 l 556 278 l 556 139 l 833 139 l 833 0 l 1250 0 l 1250 278 l 972 278 l 972 417 l 833 417 l 833 556 l 1250 556 l 1250 1250 l 694 1250 l 694 972 l 556 972 l 556 694 l 417 694 l 417 1250 z "},"l":{"ha":1111,"x_min":0,"x_max":0,"o":"m 0 0 l 972 0 l 972 556 l 556 556 l 556 1250 l 0 1250 z "},"m":{"ha":1667,"x_min":0,"x_max":0,"o":"m 0 0 l 278 0 l 278 694 l 417 694 l 417 417 l 556 417 l 556 139 l 694 139 l 694 417 l 833 417 l 833 556 l 972 556 l 972 0 l 1528 0 l 1528 1250 l 833 1250 l 833 972 l 694 972 l 694 694 l 556 694 l 556 1111 l 417 1111 l 417 1250 l 0 1250 z "},"n":{"ha":1528,"x_min":0,"x_max":0,"o":"m 0 1250 l 0 0 l 278 0 l 278 556 l 417 556 l 417 417 l 556 417 l 556 278 l 694 278 l 694 0 l 1389 0 l 1389 1250 l 833 1250 l 833 694 l 694 694 l 694 1111 l 556 1111 l 556 1250 z "},"o":{"ha":1389,"x_min":0,"x_max":0,"o":"m 417 833 l 694 833 l 694 278 l 417 278 z m 0 0 l 1250 0 l 1250 1250 l 0 1250 z "},"p":{"ha":1528,"x_min":0,"x_max":0,"o":"m 556 694 l 833 694 l 833 556 l 556 556 z m 417 139 l 556 139 l 556 278 l 1250 278 l 1250 417 l 1389 417 l 1389 1250 l 0 1250 l 0 0 l 417 0 z "},"q":{"ha":1389,"x_min":0,"x_max":0,"o":"m 694 833 l 694 556 l 556 556 l 556 278 l 417 278 l 417 833 z m 0 0 l 556 0 l 556 139 l 694 139 l 694 0 l 1250 0 l 1250 278 l 1111 278 l 1111 417 l 1250 417 l 1250 1250 l 0 1250 z "},"r":{"ha":1528,"x_min":0,"x_max":0,"o":"m 556 694 l 833 694 l 833 556 l 556 556 z m 417 139 l 833 139 l 833 0 l 1389 0 l 1389 278 l 1111 278 l 1111 417 l 1389 417 l 1389 1250 l 0 1250 l 0 0 l 417 0 z "},"s":{"ha":1389,"x_min":0,"x_max":0,"o":"m 0 417 l 694 417 l 694 278 l 0 278 l 0 0 l 1250 0 l 1250 556 l 556 556 l 556 694 l 1250 694 l 1250 1250 l 0 1250 z "},"t":{"ha":1528,"x_min":0,"x_max":0,"o":"m 0 694 l 417 694 l 417 0 l 972 0 l 972 694 l 1389 694 l 1389 1250 l 0 1250 z "},"u":{"ha":1528,"x_min":0,"x_max":0,"o":"m 0 0 l 1389 0 l 1389 1250 l 833 1250 l 833 417 l 694 417 l 694 278 l 556 278 l 556 1250 l 0 1250 z "},"v":{"ha":1528,"x_min":0,"x_max":0,"o":"m 0 278 l 139 278 l 139 139 l 278 139 l 278 0 l 1111 0 l 1111 139 l 1250 139 l 1250 278 l 1389 278 l 1389 1250 l 833 1250 l 833 694 l 694 694 l 694 417 l 556 417 l 556 1250 l 0 1250 z "},"w":{"ha":1667,"x_min":0,"x_max":0,"o":"m 417 139 l 556 139 l 556 556 l 694 556 l 694 278 l 833 278 l 833 0 l 1528 0 l 1528 1250 l 972 1250 l 972 694 l 833 694 l 833 833 l 694 833 l 694 1111 l 556 1111 l 556 833 l 417 833 l 417 556 l 278 556 l 278 1250 l 0 1250 l 0 0 l 417 0 z "},"x":{"ha":1528,"x_min":0,"x_max":0,"o":"m 0 694 l 139 694 l 139 556 l 0 556 l 0 0 l 556 0 l 556 278 l 694 278 l 694 417 l 833 417 l 833 0 l 1389 0 l 1389 417 l 1250 417 l 1250 556 l 1389 556 l 1389 1250 l 833 1250 l 833 972 l 694 972 l 694 694 l 556 694 l 556 1250 l 0 1250 z "},"y":{"ha":1528,"x_min":0,"x_max":0,"o":"m 0 556 l 139 556 l 139 417 l 417 417 l 417 0 l 972 0 l 972 417 l 1250 417 l 1250 556 l 1389 556 l 1389 1250 l 833 1250 l 833 972 l 694 972 l 694 694 l 556 694 l 556 1250 l 0 1250 z "},"z":{"ha":1389,"x_min":0,"x_max":0,"o":"m 0 1250 l 0 694 l 556 694 l 556 556 l 139 556 l 139 417 l 0 417 l 0 0 l 1250 0 l 1250 278 l 694 278 l 694 417 l 972 417 l 972 556 l 1250 556 l 1250 1250 z "},"{":{"ha":1389,"x_min":0,"x_max":0,"o":"m 1111 972 l 1111 1111 l 694 1111 l 694 972 l 556 972 l 556 1111 l 139 1111 l 139 972 l 0 972 l 0 556 l 139 556 l 139 417 l 278 417 l 278 278 l 417 278 l 417 139 l 556 139 l 556 0 l 694 0 l 694 139 l 833 139 l 833 278 l 972 278 l 972 417 l 1111 417 l 1111 556 l 1250 556 l 1250 972 z "},"|":{"ha":1389,"x_min":0,"x_max":0,"o":"m 1111 972 l 1111 1111 l 694 1111 l 694 972 l 556 972 l 556 1111 l 139 1111 l 139 972 l 0 972 l 0 556 l 139 556 l 139 417 l 278 417 l 278 278 l 417 278 l 417 139 l 556 139 l 556 0 l 694 0 l 694 139 l 833 139 l 833 278 l 972 278 l 972 417 l 1111 417 l 1111 556 l 1250 556 l 1250 972 z "},"}":{"ha":1389,"x_min":0,"x_max":0,"o":"m 1111 972 l 1111 1111 l 694 1111 l 694 972 l 556 972 l 556 1111 l 139 1111 l 139 972 l 0 972 l 0 556 l 139 556 l 139 417 l 278 417 l 278 278 l 417 278 l 417 139 l 556 139 l 556 0 l 694 0 l 694 139 l 833 139 l 833 278 l 972 278 l 972 417 l 1111 417 l 1111 556 l 1250 556 l 1250 972 z "},"~":{"ha":1389,"x_min":0,"x_max":0,"o":"m 1111 972 l 1111 1111 l 694 1111 l 694 972 l 556 972 l 556 1111 l 139 1111 l 139 972 l 0 972 l 0 556 l 139 556 l 139 417 l 278 417 l 278 278 l 417 278 l 417 139 l 556 139 l 556 0 l 694 0 l 694 139 l 833 139 l 833 278 l 972 278 l 972 417 l 1111 417 l 1111 556 l 1250 556 l 1250 972 z "},"¡":{"ha":556,"x_min":0,"x_max":0,"o":"m 417 972 l 417 1250 l 139 1250 l 139 972 z m 417 0 l 417 833 l 139 833 l 139 694 l 0 694 l 0 0 z "},"¿":{"ha":1389,"x_min":0,"x_max":0,"o":"m 833 972 l 833 1250 l 556 1250 l 556 972 z m 1250 556 l 833 556 l 833 417 l 556 417 l 556 556 l 694 556 l 694 694 l 833 694 l 833 833 l 0 833 l 0 0 l 1250 0 z "},"�":{"ha":1389,"x_min":0,"x_max":0,"o":"m 1111 972 l 1111 1111 l 694 1111 l 694 972 l 556 972 l 556 1111 l 139 1111 l 139 972 l 0 972 l 0 556 l 139 556 l 139 417 l 278 417 l 278 278 l 417 278 l 417 139 l 556 139 l 556 0 l 694 0 l 694 139 l 833 139 l 833 278 l 972 278 l 972 417 l 1111 417 l 1111 556 l 1250 556 l 1250 972 z "}}}
